<?xml version="1.0" encoding="utf-8"?>
<!-- Generator: Adobe Illustrator 16.0.0, SVG Export Plug-In . SVG Version: 6.00 Build 0)  -->
<!DOCTYPE svg PUBLIC "-//W3C//DTD SVG 1.1//EN" "http://www.w3.org/Graphics/SVG/1.1/DTD/svg11.dtd">
<svg version="1.1" id="Layer_1" xmlns="http://www.w3.org/2000/svg" xmlns:xlink="http://www.w3.org/1999/xlink" x="0px" y="0px"
	 width="23px" height="20px" viewBox="0 0 23 20" enable-background="new 0 0 23 20" xml:space="preserve">
<g>
	<g>
		<path fill="#FFFFFF" d="M3.797,9.201l0.887,3.34h1.303l1.65-5.19H6.295l-0.978,3.4l-0.858-3.4H3.15l-0.885,3.4l-0.96-3.4h-1.317
			l1.622,5.19H2.93L3.797,9.201z M12.147,7.351h-1.309l-0.885,3.4l-0.965-3.4H7.672l1.625,5.19h1.321l0.867-3.34l0.889,3.34h1.302
			l1.648-5.19h-1.337l-0.983,3.4L12.147,7.351z M21.671,7.351l-0.98,3.4l-0.855-3.4h-1.312l-0.886,3.4l-0.959-3.4h-1.32l1.627,5.19
			h1.319l0.867-3.34l0.885,3.34h1.307l1.648-5.19H21.671z M11.499,0C7.534,0,4.123,2.374,2.555,5.788h17.891
			C18.875,2.374,15.465,0,11.499,0z M11.499,19.999c3.966,0,7.372-2.372,8.944-5.788H2.557C4.125,17.627,7.534,19.999,11.499,19.999
			z"/>
	</g>
</g>
</svg>
