<?xml version="1.0" encoding="utf-8"?>
<!-- Generator: Adobe Illustrator 16.0.0, SVG Export Plug-In . SVG Version: 6.00 Build 0)  -->
<!DOCTYPE svg PUBLIC "-//W3C//DTD SVG 1.1//EN" "http://www.w3.org/Graphics/SVG/1.1/DTD/svg11.dtd">
<svg version="1.1" xmlns="http://www.w3.org/2000/svg" xmlns:xlink="http://www.w3.org/1999/xlink" x="0px" y="0px"
	 width="13px" height="24px" viewBox="0 0 13 24" enable-background="new 0 0 13 24" xml:space="preserve">
<path fill="#FFFFFF" d="M11.326,0.006H1.673c-0.923,0-1.669,0.782-1.669,1.746v20.498c0,0.963,0.746,1.746,1.669,1.746h9.653
	c0.922,0,1.67-0.783,1.67-1.746V1.751C12.996,0.788,12.25,0.006,11.326,0.006z M4.118,1.066h4.765c0.121,0,0.219,0.188,0.219,0.422
	c0,0.232-0.098,0.422-0.219,0.422H4.118c-0.121,0-0.217-0.189-0.217-0.422C3.901,1.254,3.997,1.066,4.118,1.066z M6.5,22.271
	c-0.588,0-1.066-0.5-1.066-1.115c0-0.618,0.479-1.115,1.066-1.115c0.587,0,1.066,0.499,1.066,1.115
	C7.566,21.771,7.086,22.271,6.5,22.271z M11.746,18.449H1.256V2.953h10.49V18.449z"/>
</svg>
