<?xml version="1.0" encoding="utf-8"?>
<!-- Generator: Adobe Illustrator 16.0.0, SVG Export Plug-In . SVG Version: 6.00 Build 0)  -->
<!DOCTYPE svg PUBLIC "-//W3C//DTD SVG 1.1//EN" "http://www.w3.org/Graphics/SVG/1.1/DTD/svg11.dtd">
<svg version="1.1"  xmlns="http://www.w3.org/2000/svg" xmlns:xlink="http://www.w3.org/1999/xlink" x="0px" y="0px"
	 width="36px" height="36px" viewBox="0 0 36 36" enable-background="new 0 0 36 36" xml:space="preserve">
<g>
	<g>
		<path d="M14.637,6.593c1.027,0.785,3.376,0.255,5.25-1.18c1.874-1.437,2.56-3.236,1.533-4.019
			c-0.475-0.364-1.236-0.442-2.102-0.283c-0.337-0.291-0.87-0.43-1.392-0.317l-1.76,0.377c-0.728,0.157-1.154,0.734-0.95,1.292
			l0.26,0.711C14.144,4.48,13.749,5.917,14.637,6.593z M18.732,4.514c1.317-0.455,2.034-1.441,1.677-2.261
			c0.031,0.041,0.061,0.08,0.085,0.122c0.496,0.841-0.227,1.911-1.613,2.388c-1.389,0.479-2.916,0.186-3.412-0.654
			c-0.025-0.043-0.043-0.085-0.063-0.128C15.972,4.726,17.415,4.97,18.732,4.514z M18.755,7.736h-0.874v0.542h0.874V7.736z
			 M18.788,16.395V8.822h-0.872v7.573l0.423,1.217L18.788,16.395z M12.338,32.197c-1.536,1.348,0.819,3.455,2.356,2.108
			c1.263-1.108,2.28-2.353,3.139-3.681c-0.614-1.081-1.319-2.333-1.535-3.521C15.381,28.886,13.94,30.792,12.338,32.197z
			 M18.558,22.47c1.479,2.576,1.147,2.253,1.88,3.199c0.924-1.932,1.537-4.443,1.672-6.632c0.063-0.174,0.042-0.315-0.044-0.432
			c0.058-0.082,0.098-0.191,0.098-0.363v-5.744l7.576-10.987c-0.685-1.648-2.344-1.507-2.344-1.507
			c-1.537,2.11-4.39,5.921-6.24,7.788c-0.202-0.076-0.423-0.12-0.657-0.12h-0.276l-0.776,1.668v8.804
			c-0.678,0.02-1.412,0.08-2.109,0.153V9.44l-0.888-1.767h-0.888c-0.161,0-0.312,0.027-0.458,0.064
			c-1.961-1.762-5.013-4.797-6.518-6.86c0,0-2.798-0.695-2.344,1.268c0.634,0.769,4.794,6.506,7.653,9.786v6.311
			c0,0.134,0.027,0.229,0.064,0.306c0.01,0.221,0.092,0.738,0.33,1.832c0.329,2.686,3.839,9.97,3.851,9.948
			c0.839,1.692,1.782,3.341,2.868,4.928c1.119,1.639,3.999,0.142,2.875-1.505C22.342,31.496,19.114,24.309,18.558,22.47z
			 M14.169,18.742c0,0,0,0,0-0.002c0,0.001,0.001,0.002,0.002,0.002H14.169z"/>
	</g>
</g>
</svg>
