<?xml version="1.0" encoding="utf-8"?><!DOCTYPE svg PUBLIC "-//W3C//DTD SVG 1.1//EN" "http://www.w3.org/Graphics/SVG/1.1/DTD/svg11.dtd"><svg version="1.1" id="Layer_1" xmlns="http://www.w3.org/2000/svg" xmlns:xlink="http://www.w3.org/1999/xlink" x="0px" y="0px" width="770" height="94" viewBox="0 0 770 116" enable-background="new 0 0 770 116" xml:space="preserve"><g><g><path fill="#ffffff" d="M57.691,78.85c-3.141-4.709-6.501-9.615-10.078-14.717c-3.579-5.101-7.179-10.026-10.798-14.782c-3.622-4.751-7.179-9.221-10.667-13.407c-3.491-4.187-6.675-7.718-9.555-10.596H-0.031V116h20.157V56.611c7.677,8.983,14.921,18.533,21.728,28.648C48.66,95.377,54.985,105.623,60.833,116h17.146V25.348H57.691V78.85z M201.405,99.648c-1.223,0.262-2.64,0.438-4.254,0.523c-1.616,0.088-3.557,0.131-5.825,0.131c-4.188,0-7.853-0.72-10.995-2.158c-3.141-1.439-5.759-3.467-7.853-6.083s-3.665-5.733-4.712-9.353c-1.047-3.619-1.571-7.653-1.571-12.101c0-9.157,2.115-16.372,6.348-21.649c4.231-5.276,11.103-7.914,20.615-7.914c4.274,0,8.224,0.545,11.846,1.635c3.62,1.091,6.827,2.377,9.62,3.859l5.89-16.351c-0.7-0.436-1.855-1.047-3.469-1.831c-1.615-0.785-3.665-1.547-6.152-2.289c-2.487-0.741-5.454-1.395-8.9-1.963c-3.448-0.565-7.309-0.85-11.583-0.85c-6.283,0-12.195,1.046-17.735,3.139c-5.542,2.093-10.363,5.167-14.463,9.222c-4.103,4.055-7.33,9.005-9.686,14.847c-2.356,5.843-3.534,12.558-3.534,20.145c0,7.501,1.068,14.173,3.207,20.014c2.137,5.844,5.17,10.772,9.097,14.782c3.927,4.012,8.659,7.064,14.201,9.156c5.541,2.094,11.714,3.14,18.521,3.14c7.939,0,14.614-0.546,20.026-1.634c5.409-1.09,9.336-2.115,11.78-3.075V68.123h-20.418V99.648z M295.514,60.013h-34.293V25.348h-20.418V116h20.418V77.541h34.293V116h20.418V25.348h-20.418V60.013z M329.02,42.746h27.356V116h20.418V42.746h27.355V25.348H329.02V42.746z M510.954,96.378c-1.396,0.611-3.012,1.157-4.844,1.636c-1.832,0.48-3.926,0.895-6.283,1.242c-2.355,0.35-5.018,0.523-7.982,0.523c-4.713,0-8.727-0.763-12.043-2.289c-3.316-1.525-6-3.598-8.049-6.213c-2.053-2.617-3.535-5.734-4.451-9.354c-0.916-3.617-1.373-7.521-1.373-11.707c0-5.232,0.697-9.68,2.094-13.343c1.395-3.663,3.25-6.649,5.563-8.96c2.311-2.31,4.973-3.99,7.984-5.037c3.01-1.046,6.086-1.569,9.227-1.569c4.713,0,8.922,0.523,12.631,1.569c3.709,1.047,6.959,2.312,9.752,3.794l5.891-16.482c-0.699-0.436-1.834-1.047-3.404-1.831c-1.57-0.785-3.533-1.547-5.889-2.289c-2.357-0.741-5.105-1.395-8.246-1.963c-3.143-0.565-6.633-0.85-10.473-0.85c-6.631,0-12.783,1.046-18.455,3.139c-5.672,2.093-10.559,5.167-14.658,9.222c-4.104,4.055-7.33,9.026-9.686,14.913c-2.357,5.887-3.535,12.58-3.535,20.079c0,15.088,3.861,26.729,11.584,34.927s18.957,12.297,33.703,12.297c6.893,0,12.959-0.7,18.193-2.094c5.236-1.395,9.293-2.964,12.174-4.709l-5.629-16.352C513.614,95.201,512.349,95.77,510.954,96.378z M553.884,25.348h-20.418V116h60.602V98.471h-40.184V25.348z M658.333,80.026c0,7.325-1.551,12.515-4.646,15.567c-3.1,3.053-7.135,4.578-12.107,4.578c-2.443,0-4.691-0.348-6.74-1.047c-2.053-0.697-3.797-1.852-5.236-3.467c-1.439-1.611-2.574-3.705-3.402-6.279c-0.832-2.57-1.244-5.689-1.244-9.353V25.348h-20.418v56.38c0,5.319,0.719,10.183,2.158,14.585c1.441,4.405,3.666,8.199,6.676,11.381c3.01,3.185,6.826,5.67,11.453,7.455c4.623,1.787,10.121,2.684,16.492,2.684c6.455,0,12.041-0.873,16.754-2.617c4.711-1.743,8.594-4.206,11.648-7.391c3.053-3.182,5.322-6.998,6.807-11.446c1.482-4.448,2.225-9.331,2.225-14.65v-56.38h-20.418V80.026z M766.837,75.84c-2.094-3.747-6.021-6.713-11.779-8.895c6.98-4.186,10.471-9.896,10.471-17.136c0-4.795-0.982-8.829-2.945-12.1c-1.963-3.27-4.691-5.907-8.18-7.915c-3.492-2.004-7.658-3.421-12.5-4.251c-4.844-0.827-10.145-1.243-15.904-1.243c-4.275,0-8.9,0.196-13.873,0.589c-4.975,0.392-9.555,0.981-13.744,1.766v87.904c5.322,1.135,10.449,1.853,15.381,2.159c4.928,0.304,9.881,0.457,14.855,0.457c13.697,0,24.018-2.396,30.955-7.194c6.938-4.795,10.406-11.946,10.406-21.453C769.979,83.82,768.931,79.592,766.837,75.84z M718.278,41.176c1.57-0.173,3.357-0.282,5.365-0.327c2.006-0.042,3.883-0.065,5.629-0.065c5.408,0,9.51,0.743,12.303,2.225c2.793,1.484,4.189,4.055,4.189,7.717c0,3.577-1.354,6.171-4.059,7.783c-2.705,1.615-7.199,2.42-13.48,2.42h-9.947V41.176z M743.669,97.816c-3.752,1.746-8.684,2.617-14.789,2.617c-2.094,0-4.016-0.043-5.76-0.131c-1.746-0.086-3.359-0.217-4.842-0.393V76.494h12.826c5.846,0,10.34,0.896,13.482,2.683c3.141,1.788,4.711,4.774,4.711,8.96C749.298,92.848,747.421,96.074,743.669,97.816z M106.241,22.411c3.275,2.5,10.765,0.812,16.738-3.764c5.978-4.579,8.162-10.313,4.89-12.812c-1.515-1.161-3.943-1.408-6.701-0.9c-1.074-0.927-2.772-1.37-4.438-1.013l-5.61,1.203c-2.322,0.5-3.68,2.341-3.028,4.121l0.828,2.266C104.671,15.672,103.41,20.251,106.241,22.411z M119.3,15.78c4.2-1.449,6.483-4.596,5.346-7.207c0.094,0.129,0.189,0.253,0.27,0.387c1.58,2.682-0.724,6.093-5.147,7.616c-4.424,1.526-9.293,0.591-10.872-2.089c-0.079-0.134-0.141-0.271-0.201-0.408C110.5,16.456,115.1,17.232,119.3,15.78z M119.369,26.054h-2.782v1.73h2.782V26.054z M119.479,53.659V29.515h-2.78v24.144l1.35,3.882L119.479,53.659z M98.912,104.039c-4.897,4.297,2.614,11.02,7.513,6.725c4.027-3.531,7.272-7.501,10.008-11.733c-1.956-3.45-4.205-7.438-4.895-11.229C108.616,93.485,104.022,99.563,98.912,104.039z M118.741,73.025c4.719,8.212,3.661,7.184,5.995,10.202c2.942-6.159,4.899-14.168,5.331-21.143c0.2-0.555,0.135-1.005-0.144-1.38c0.188-0.259,0.314-0.609,0.314-1.158v-18.31L154.39,6.206c-2.182-5.255-7.472-4.803-7.472-4.803c-4.901,6.726-13.996,18.876-19.894,24.83c-0.643-0.244-1.349-0.383-2.09-0.383h-0.885l-2.476,5.319V59.24c-2.162,0.064-4.498,0.252-6.725,0.488V31.486l-2.83-5.633h-2.831c-0.513,0-0.995,0.084-1.459,0.203c-6.251-5.619-15.983-15.294-20.781-21.872c0,0-8.921-2.219-7.472,4.041c2.022,2.451,15.285,20.743,24.401,31.204v20.118c0,0.431,0.085,0.732,0.205,0.978c0.03,0.703,0.292,2.353,1.051,5.839c1.049,8.568,12.237,31.787,12.277,31.723c2.674,5.393,5.678,10.647,9.144,15.711c3.564,5.222,12.75,0.449,9.166-4.798C130.806,101.809,120.513,78.891,118.741,73.025z M104.752,61.145c0,0-0.002-0.003-0.002-0.006c0.002,0.003,0.004,0.005,0.007,0.006H104.752z"/></g></g></svg>