<?xml version="1.0" encoding="utf-8"?><!DOCTYPE svg PUBLIC "-//W3C//DTD SVG 1.1//EN" "http://www.w3.org/Graphics/SVG/1.1/DTD/svg11.dtd"><svg version="1.1" id="Layer_1" xmlns="http://www.w3.org/2000/svg" xmlns:xlink="http://www.w3.org/1999/xlink" x="0px" y="0px" width="183px" height="43px" viewBox="0 0 183 43" enable-background="new 0 0 183 43" xml:space="preserve"><g><g><path fill="#FFFFFF" d="M13.118,12.75c-0.714-1.08-1.478-2.205-2.291-3.375c-0.813-1.17-1.631-2.3-2.454-3.39C7.55,4.895,6.742,3.87,5.949,2.91C5.156,1.95,4.432,1.14,3.777,0.48H0v20.79h4.581V7.65c1.745,2.06,3.391,4.25,4.938,6.57s2.984,4.67,4.313,7.05h3.897V0.48h-4.611V12.75z M24.719,21.27h4.64V0.48h-4.64V21.27z M48.277,17.52c-0.278,0.06-0.6,0.101-0.966,0.12c-0.367,0.02-0.809,0.029-1.324,0.029c-0.952,0-1.785-0.164-2.499-0.494s-1.309-0.795-1.785-1.396c-0.476-0.6-0.833-1.315-1.071-2.146c-0.238-0.829-0.357-1.754-0.357-2.774c0-2.1,0.48-3.754,1.443-4.965c0.961-1.21,2.523-1.815,4.685-1.815c0.972,0,1.869,0.125,2.692,0.375C49.918,4.705,50.646,5,51.281,5.34l1.339-3.75c-0.159-0.1-0.422-0.24-0.788-0.42c-0.367-0.18-0.833-0.355-1.398-0.525s-1.24-0.32-2.022-0.45C47.627,0.065,46.75,0,45.778,0c-1.428,0-2.771,0.24-4.03,0.72c-1.26,0.48-2.355,1.185-3.287,2.115C37.528,3.765,36.795,4.9,36.26,6.24c-0.536,1.34-0.803,2.88-0.803,4.62c0,1.72,0.243,3.251,0.729,4.59c0.485,1.341,1.175,2.471,2.067,3.39c0.892,0.921,1.968,1.621,3.227,2.101s2.663,0.72,4.209,0.72c1.804,0,3.322-0.125,4.551-0.375s2.121-0.484,2.678-0.705V10.29h-4.641V17.52z M71.895,8.43h-7.793V0.48h-4.641v20.79h4.641v-8.82h7.793v8.82h4.641V0.48h-4.641V8.43z M81.74,0.48v3.99h6.217v16.8h4.641V4.47h6.217V0.48H81.74z"/></g></g><g><g><path fill="#FF2A70" d="M117.441,16.771c-0.318,0.14-0.685,0.265-1.102,0.375c-0.416,0.11-0.893,0.205-1.428,0.285s-1.141,0.12-1.814,0.12c-1.07,0-1.982-0.176-2.736-0.525s-1.363-0.825-1.83-1.425c-0.465-0.601-0.803-1.315-1.011-2.146s-0.313-1.725-0.313-2.685c0-1.2,0.159-2.22,0.476-3.06c0.317-0.84,0.739-1.525,1.265-2.056s1.13-0.915,1.814-1.155s1.384-0.359,2.097-0.359c1.071,0,2.027,0.119,2.871,0.359c0.843,0.24,1.581,0.531,2.216,0.871l1.339-3.781c-0.159-0.1-0.416-0.239-0.773-0.42c-0.357-0.18-0.803-0.354-1.339-0.524c-0.535-0.17-1.159-0.319-1.874-0.45C114.586,0.065,113.792,0,112.92,0c-1.508,0-2.906,0.24-4.195,0.721c-1.289,0.479-2.398,1.185-3.331,2.115c-0.933,0.93-1.665,2.069-2.201,3.42c-0.535,1.35-0.804,2.885-0.804,4.604c0,3.46,0.878,6.13,2.633,8.011c1.756,1.879,4.309,2.819,7.66,2.819c1.566,0,2.945-0.16,4.135-0.479c1.189-0.32,2.111-0.68,2.766-1.08l-1.279-3.75C118.045,16.5,117.758,16.631,117.441,16.771z M129.428,0.48h-4.64v20.79h13.772V17.25h-9.133V0.48z M155.396,13.021c0,1.68-0.353,2.87-1.057,3.569c-0.703,0.701-1.621,1.051-2.751,1.051c-0.556,0-1.066-0.08-1.532-0.24s-0.862-0.425-1.189-0.795c-0.328-0.37-0.586-0.85-0.773-1.439c-0.189-0.59-0.283-1.306-0.283-2.146V0.48h-4.641v12.93c0,1.221,0.164,2.336,0.492,3.346c0.326,1.01,0.832,1.88,1.516,2.609c0.686,0.73,1.553,1.301,2.604,1.71c1.051,0.41,2.301,0.615,3.748,0.615c1.467,0,2.736-0.199,3.808-0.6c1.071-0.399,1.952-0.965,2.647-1.694c0.693-0.729,1.209-1.604,1.547-2.625c0.336-1.021,0.506-2.14,0.506-3.36V0.48h-4.641V13.021z M182.286,12.061c-0.476-0.859-1.368-1.54-2.677-2.04c1.586-0.96,2.379-2.271,2.379-3.931c0-1.1-0.223-2.024-0.669-2.774s-1.066-1.354-1.859-1.815c-0.794-0.459-1.739-0.784-2.841-0.975c-1.1-0.189-2.305-0.285-3.613-0.285c-0.973,0-2.023,0.045-3.154,0.135c-1.13,0.09-2.171,0.226-3.123,0.405v20.16c1.21,0.261,2.375,0.425,3.496,0.496c1.119,0.07,2.245,0.105,3.375,0.105c3.113,0,5.459-0.551,7.035-1.651S183,17.15,183,14.971C183,13.891,182.762,12.92,182.286,12.061z M171.25,4.11c0.357-0.04,0.764-0.064,1.22-0.075c0.456-0.01,0.882-0.015,1.279-0.015c1.229,0,2.161,0.17,2.796,0.51c0.635,0.341,0.952,0.931,0.952,1.771c0,0.82-0.308,1.414-0.923,1.785c-0.614,0.369-1.635,0.555-3.063,0.555h-2.262V4.11z M177.021,17.101c-0.854,0.399-1.975,0.6-3.361,0.6c-0.477,0-0.913-0.01-1.309-0.03c-0.397-0.02-0.764-0.049-1.102-0.09v-5.369h2.916c1.328,0,2.35,0.205,3.063,0.614c0.715,0.41,1.071,1.095,1.071,2.056C178.3,15.961,177.873,16.701,177.021,17.101z"/></g></g><g><g><path fill="#FFFFFF" d="M4.691,38.811H1.246V35.92H0.26v6.93h0.986V39.65h3.445v3.199h0.985v-6.93H4.691V38.811z M17.845,39.04c-0.227-0.56-0.452-1.095-0.676-1.604s-0.458-1.016-0.701-1.516h-0.904c-0.244,0.5-0.478,1.006-0.701,1.516s-0.449,1.045-0.676,1.604c-0.227,0.56-0.459,1.151-0.696,1.774c-0.237,0.624-0.491,1.303-0.762,2.035h1.026l0.64-1.77h3.191c0.108,0.3,0.213,0.596,0.315,0.885c0.102,0.29,0.21,0.586,0.325,0.885h1.077c-0.271-0.732-0.525-1.411-0.762-2.035C18.304,40.191,18.072,39.6,17.845,39.04z M14.68,40.28c0.21-0.58,0.422-1.142,0.635-1.685c0.213-0.544,0.438-1.065,0.676-1.565c0.23,0.5,0.452,1.021,0.666,1.565c0.213,0.543,0.428,1.104,0.645,1.685H14.68z M29.292,38.965c-0.353,0.977-0.715,1.889-1.087,2.735c-0.373-0.854-0.735-1.767-1.087-2.74s-0.711-1.986-1.077-3.04h-1.087c0.251,0.733,0.495,1.412,0.732,2.035c0.237,0.623,0.469,1.215,0.696,1.775c0.227,0.56,0.451,1.095,0.671,1.604c0.22,0.511,0.445,1.015,0.676,1.515h0.925c0.23-0.5,0.456-1.004,0.676-1.515c0.22-0.51,0.442-1.045,0.666-1.604c0.224-0.561,0.452-1.152,0.686-1.775c0.233-0.623,0.479-1.302,0.736-2.035h-1.057C30,36.974,29.645,37.988,29.292,38.965z M39.475,39.62h2.947v-0.81h-2.947V36.75h3.313v-0.83h-4.298v6.93h4.553v-0.83h-3.567V39.62z M63.157,39.04c-0.227-0.56-0.453-1.095-0.676-1.604c-0.224-0.51-0.458-1.016-0.702-1.516h-0.904c-0.244,0.5-0.478,1.006-0.701,1.516s-0.449,1.045-0.676,1.604c-0.227,0.56-0.459,1.151-0.696,1.774c-0.237,0.624-0.491,1.303-0.762,2.035h1.026l0.64-1.77h3.191c0.108,0.3,0.213,0.596,0.315,0.885c0.102,0.29,0.21,0.586,0.325,0.885h1.077c-0.271-0.732-0.525-1.411-0.762-2.035C63.615,40.191,63.383,39.6,63.157,39.04z M59.991,40.28c0.21-0.58,0.422-1.142,0.635-1.685c0.213-0.544,0.438-1.065,0.675-1.565c0.23,0.5,0.452,1.021,0.666,1.565c0.213,0.543,0.428,1.104,0.645,1.685H59.991z M84.41,42.02c-0.088,0.027-0.232,0.056-0.432,0.086c-0.2,0.029-0.442,0.045-0.727,0.045c-0.4,0-0.747-0.066-1.042-0.2c-0.295-0.134-0.542-0.321-0.742-0.565c-0.2-0.243-0.349-0.535-0.447-0.875c-0.099-0.34-0.147-0.717-0.147-1.13c0-0.427,0.058-0.812,0.173-1.155c0.115-0.343,0.276-0.635,0.482-0.875s0.458-0.423,0.752-0.549c0.295-0.127,0.622-0.191,0.981-0.191c0.338,0,0.67,0.043,0.996,0.125c0.325,0.084,0.586,0.189,0.783,0.316l0.315-0.811c-0.041-0.027-0.117-0.066-0.229-0.12s-0.256-0.106-0.432-0.16s-0.388-0.101-0.635-0.14c-0.247-0.04-0.53-0.061-0.848-0.061c-0.468,0-0.906,0.08-1.316,0.24c-0.41,0.16-0.767,0.394-1.072,0.7s-0.547,0.685-0.727,1.135c-0.18,0.45-0.27,0.966-0.27,1.545c0,0.58,0.08,1.094,0.239,1.54c0.159,0.447,0.385,0.824,0.676,1.131c0.292,0.307,0.64,0.539,1.047,0.699c0.406,0.16,0.857,0.24,1.352,0.24c0.244,0,0.484-0.012,0.721-0.035c0.237-0.023,0.456-0.052,0.656-0.085c0.2-0.033,0.376-0.066,0.528-0.101c0.152-0.033,0.27-0.063,0.351-0.09v-3.24H84.41V42.02z M98.484,36.676c-0.305-0.305-0.659-0.532-1.063-0.686c-0.402-0.153-0.832-0.23-1.285-0.23c-0.461,0-0.896,0.077-1.307,0.23c-0.409,0.153-0.769,0.381-1.076,0.686c-0.309,0.303-0.553,0.682-0.732,1.135s-0.27,0.977-0.27,1.569c0,0.594,0.09,1.116,0.27,1.57c0.18,0.453,0.424,0.831,0.732,1.135c0.308,0.304,0.667,0.532,1.076,0.685c0.41,0.154,0.846,0.23,1.307,0.23c0.453,0,0.883-0.076,1.285-0.23c0.403-0.152,0.758-0.381,1.063-0.685s0.547-0.682,0.727-1.135c0.18-0.454,0.269-0.977,0.269-1.57c0-0.593-0.089-1.116-0.269-1.569S98.789,36.979,98.484,36.676z M98.271,40.525c-0.108,0.344-0.263,0.635-0.462,0.875c-0.2,0.24-0.442,0.425-0.727,0.555c-0.285,0.13-0.607,0.195-0.966,0.195c-0.359,0-0.683-0.065-0.971-0.195s-0.532-0.314-0.731-0.555s-0.354-0.531-0.463-0.875c-0.107-0.344-0.162-0.725-0.162-1.146c0-0.42,0.055-0.802,0.162-1.146c0.109-0.343,0.264-0.635,0.463-0.875c0.199-0.239,0.443-0.424,0.731-0.555c0.288-0.129,0.611-0.195,0.971-0.195c0.358,0,0.681,0.066,0.966,0.195c0.284,0.131,0.526,0.315,0.727,0.555c0.199,0.24,0.354,0.532,0.462,0.875c0.108,0.344,0.163,0.726,0.163,1.146C98.434,39.801,98.379,40.182,98.271,40.525z M112.486,36.676c-0.305-0.305-0.658-0.532-1.062-0.686s-0.831-0.23-1.285-0.23c-0.461,0-0.896,0.077-1.306,0.23s-0.77,0.381-1.078,0.686c-0.308,0.303-0.552,0.682-0.73,1.135c-0.18,0.453-0.27,0.977-0.27,1.569c0,0.594,0.09,1.116,0.27,1.57c0.179,0.453,0.423,0.831,0.73,1.135c0.309,0.304,0.668,0.532,1.078,0.685c0.41,0.154,0.845,0.23,1.306,0.23c0.454,0,0.882-0.076,1.285-0.23c0.403-0.152,0.757-0.381,1.062-0.685c0.306-0.304,0.548-0.682,0.727-1.135c0.18-0.454,0.27-0.977,0.27-1.57c0-0.593-0.09-1.116-0.27-1.569C113.034,37.357,112.792,36.979,112.486,36.676z M112.273,40.525c-0.108,0.344-0.263,0.635-0.463,0.875c-0.199,0.24-0.441,0.425-0.727,0.555c-0.284,0.13-0.605,0.195-0.965,0.195s-0.683-0.065-0.971-0.195c-0.287-0.13-0.531-0.314-0.731-0.555s-0.354-0.531-0.462-0.875c-0.109-0.344-0.163-0.725-0.163-1.146c0-0.42,0.054-0.802,0.163-1.146c0.107-0.343,0.262-0.635,0.462-0.875c0.2-0.239,0.444-0.424,0.731-0.555c0.288-0.129,0.611-0.195,0.971-0.195s0.681,0.066,0.965,0.195c0.285,0.131,0.527,0.315,0.727,0.555c0.2,0.24,0.354,0.532,0.463,0.875c0.108,0.344,0.162,0.726,0.162,1.146C112.436,39.801,112.382,40.182,112.273,40.525z M125.738,36.715c-0.346-0.289-0.76-0.506-1.24-0.65c-0.48-0.143-1.01-0.215-1.585-0.215c-0.284,0-0.599,0.012-0.94,0.035s-0.652,0.068-0.93,0.135v6.721c0.277,0.066,0.588,0.111,0.93,0.135s0.656,0.035,0.94,0.035c0.575,0,1.104-0.072,1.585-0.215c0.48-0.144,0.895-0.36,1.24-0.65s0.613-0.656,0.803-1.1s0.284-0.965,0.284-1.565c0-0.6-0.095-1.122-0.284-1.565S126.084,37.005,125.738,36.715z M125.088,41.355c-0.461,0.47-1.158,0.705-2.094,0.705c-0.277,0-0.492-0.004-0.645-0.01c-0.152-0.008-0.26-0.014-0.32-0.021v-5.3c0.061-0.007,0.168-0.014,0.32-0.021s0.367-0.01,0.645-0.01c0.936,0,1.633,0.235,2.094,0.705s0.69,1.128,0.69,1.975S125.549,40.885,125.088,41.355z M142.119,36.76h2.215v6.09h0.986v-6.09h2.215v-0.84h-5.416V36.76z M154.668,42.85h0.986v-6.93h-0.986V42.85z M169.424,35.92c-0.184,0.293-0.38,0.641-0.59,1.04s-0.42,0.818-0.63,1.255c-0.21,0.438-0.413,0.873-0.61,1.311c-0.196,0.437-0.375,0.834-0.538,1.195c-0.163-0.361-0.343-0.759-0.538-1.195c-0.197-0.438-0.4-0.873-0.61-1.311c-0.21-0.437-0.42-0.855-0.63-1.255s-0.406-0.747-0.59-1.04h-0.863c-0.061,0.5-0.117,1.03-0.168,1.59c-0.051,0.561-0.098,1.135-0.143,1.725c-0.043,0.591-0.082,1.191-0.116,1.801s-0.064,1.215-0.091,1.814h0.965c0.033-0.933,0.074-1.857,0.121-2.774c0.048-0.917,0.109-1.769,0.184-2.556c0.068,0.113,0.157,0.277,0.27,0.49c0.111,0.214,0.232,0.455,0.36,0.725c0.129,0.271,0.267,0.558,0.411,0.861c0.146,0.303,0.283,0.598,0.412,0.885c0.129,0.286,0.249,0.553,0.361,0.8c0.111,0.247,0.201,0.45,0.269,0.61h0.793c0.067-0.16,0.157-0.363,0.269-0.61c0.112-0.247,0.232-0.514,0.361-0.8c0.129-0.287,0.266-0.582,0.412-0.885c0.145-0.304,0.282-0.591,0.411-0.861c0.128-0.27,0.249-0.511,0.36-0.725c0.111-0.213,0.201-0.377,0.27-0.49c0.074,0.787,0.135,1.639,0.184,2.556c0.047,0.917,0.088,1.842,0.121,2.774h0.965c-0.115-2.387-0.287-4.696-0.518-6.93H169.424z M179.433,42.02V39.62h2.946v-0.81h-2.946V36.75h3.313v-0.83h-4.298v6.93H183v-0.83H179.433z"/></g></g></svg>