<?xml version="1.0" encoding="utf-8"?>
<!-- Generator: Adobe Illustrator 16.0.0, SVG Export Plug-In . SVG Version: 6.00 Build 0)  -->
<!DOCTYPE svg PUBLIC "-//W3C//DTD SVG 1.1//EN" "http://www.w3.org/Graphics/SVG/1.1/DTD/svg11.dtd">
<svg version="1.1" id="Layer_1" xmlns="http://www.w3.org/2000/svg" xmlns:xlink="http://www.w3.org/1999/xlink" x="0px" y="0px"
	 width="135px" height="128px" viewBox="0 0 135 128" enable-background="new 0 0 135 128" xml:space="preserve">
<path fill-rule="evenodd" clip-rule="evenodd" fill="none" d="M-153.5-759.5h-7c-1.104,0-2,0.896-2,2v26c0,1.105,0.896,2,2,2h7
	c1.104,0,2-0.895,2-2v-26C-151.5-758.605-152.396-759.5-153.5-759.5z"/>
<path fill-rule="evenodd" clip-rule="evenodd" fill="#181818" d="M40.435,40.537h54.001v47H40.435V40.537z"/>
<g>
	<path fill-rule="evenodd" clip-rule="evenodd" fill="#383838" d="M133,49.073h-7c-1.104,0-2,0.895-2,2v26.001
		c0,1.104,0.896,1.998,2,1.998h7c1.104,0,2-0.895,2-1.998V51.073C135,49.967,134.104,49.073,133,49.073z"/>
	<path fill-rule="evenodd" clip-rule="evenodd" fill="#181818" d="M127,49.073h-24v30h24V49.073z"/>
</g>
<g>
	<path fill-rule="evenodd" clip-rule="evenodd" fill="#383838" d="M52.37,2v7c0,1.104,0.895,2,2,2h26.001
		c1.104,0,1.998-0.896,1.998-2V2c0-1.104-0.895-2-1.998-2H54.37C53.264,0,52.37,0.896,52.37,2z"/>
	<path fill-rule="evenodd" clip-rule="evenodd" fill="#181818" d="M52.37,8v24h30V8H52.37z"/>
</g>
<g>
	<path fill-rule="evenodd" clip-rule="evenodd" fill="#383838" d="M2,79.072h7c1.104,0,2-0.895,2-2v-26c0-1.104-0.896-1.998-2-1.998
		H2c-1.104,0-2,0.895-2,1.998v26C0,78.178,0.896,79.072,2,79.072z"/>
	<path fill-rule="evenodd" clip-rule="evenodd" fill="#181818" d="M8,79.072h24v-30H8V79.072z"/>
</g>
<g>
	<path fill-rule="evenodd" clip-rule="evenodd" fill="#383838" d="M82.37,126v-7c0-1.104-0.895-2-2-2H54.369
		c-1.104,0-1.998,0.896-1.998,2v7c0,1.104,0.895,2,1.998,2H80.37C81.476,128,82.37,127.104,82.37,126z"/>
	<path fill-rule="evenodd" clip-rule="evenodd" fill="#181818" d="M82.37,120V96h-30v24H82.37z"/>
</g>
</svg>
