<?xml version="1.0" encoding="utf-8"?>
<!-- Generator: Adobe Illustrator 16.0.0, SVG Export Plug-In . SVG Version: 6.00 Build 0)  -->
<!DOCTYPE svg PUBLIC "-//W3C//DTD SVG 1.1//EN" "http://www.w3.org/Graphics/SVG/1.1/DTD/svg11.dtd">
<svg version="1.1" id="Layer_1" xmlns="http://www.w3.org/2000/svg" xmlns:xlink="http://www.w3.org/1999/xlink" x="0px" y="0px"
	 width="173.07px" height="128px" viewBox="-0.635 0 173.07 128" enable-background="new -0.635 0 173.07 128" xml:space="preserve"
	>
<path fill="#181818" d="M39.902,40.5h93v47h-93V40.5z"/>
<path fill="none" d="M-154.5-759.5h-7c-1.104,0-2,0.896-2,2v26c0,1.105,0.896,2,2,2h7c1.104,0,2-0.895,2-2v-26
	C-152.5-758.605-153.396-759.5-154.5-759.5z"/>
<g>
	<path fill="#383838" d="M171.439,49.25h-7c-1.104,0-2,0.895-2,2v26.001c0,1.104,0.896,1.998,2,1.998h7c1.104,0,2-0.896,2-1.998
		V51.25C173.439,50.145,172.543,49.25,171.439,49.25z"/>
	<path fill="#181818" d="M165.439,49.25h-24v30h24V49.25z"/>
</g>
<g>
	<path fill="#383838" d="M1.365,79h7c1.104,0,2-0.896,2-2V51c0-1.104-0.896-1.998-2-1.998h-7c-1.104,0-2,0.895-2,1.998v26
		C-0.635,78.105,0.261,79,1.365,79z"/>
	<path fill="#181818" d="M7.365,79h24V49h-24V79z"/>
</g>
<g>
	<g>
		<path fill="#383838" d="M50.902,2v7c0,1.104,0.895,2,2,2h26.001c1.104,0,1.998-0.896,1.998-2V2c0-1.104-0.896-2-1.998-2H52.902
			C51.796,0,50.902,0.896,50.902,2z"/>
		<path fill="#181818" d="M50.902,8v24h30V8H50.902z"/>
	</g>
	<g>
		<path fill="#383838" d="M80.902,126v-7c0-1.104-0.896-2-2-2H52.901c-1.104,0-1.998,0.896-1.998,2v7c0,1.104,0.895,2,1.998,2
			h26.001C80.008,128,80.902,127.104,80.902,126z"/>
		<path fill="#181818" d="M80.902,120V96h-30v24H80.902z"/>
	</g>
	<g>
		<path fill="#383838" d="M91.902,2.073v7c0,1.104,0.895,2,2,2h26.002c1.104,0,1.998-0.896,1.998-2v-7c0-1.104-0.896-2-1.998-2
			H93.902C92.797,0.073,91.902,0.969,91.902,2.073z"/>
		<path fill="#181818" d="M91.902,8.073v24h30.001v-24H91.902z"/>
	</g>
	<g>
		<path fill="#383838" d="M121.903,126.073v-7c0-1.104-0.896-2-2-2H93.902c-1.104,0-1.998,0.896-1.998,2v7c0,1.104,0.895,2,1.998,2
			h26.001C121.009,128.073,121.903,127.178,121.903,126.073z"/>
		<path fill="#181818" d="M121.903,120.073v-24H91.902v24H121.903z"/>
	</g>
</g>
</svg>
