<?xml version="1.0" encoding="utf-8"?>
<!-- Generator: Adobe Illustrator 16.0.0, SVG Export Plug-In . SVG Version: 6.00 Build 0)  -->
<!DOCTYPE svg PUBLIC "-//W3C//DTD SVG 1.1//EN" "http://www.w3.org/Graphics/SVG/1.1/DTD/svg11.dtd">
<svg version="1.1" id="Layer_1" xmlns="http://www.w3.org/2000/svg" xmlns:xlink="http://www.w3.org/1999/xlink" x="0px" y="0px"
	 width="216.189px" height="128px" viewBox="-1 0 216.189 128" enable-background="new -1 0 216.189 128" xml:space="preserve">
<path fill="#181818" d="M39.652,40.715h135v47h-135V40.715z"/>
<path fill="none" d="M-154.5-759.5h-7c-1.104,0-2,0.896-2,2v26c0,1.105,0.896,2,2,2h7c1.104,0,2-0.895,2-2v-26
	C-152.5-758.605-153.396-759.5-154.5-759.5z"/>
<g>
	<path fill="#383838" d="M213.189,49.216h-7c-1.104,0-2,0.895-2,2v26.001c0,1.104,0.896,1.998,2,1.998h7c1.104,0,2-0.895,2-1.998
		V51.216C215.189,50.11,214.294,49.216,213.189,49.216z"/>
	<path fill="#181818" d="M207.189,49.216h-24v29.999h24V49.216z"/>
</g>
<g>
	<path fill="#383838" d="M1,79.215h7c1.104,0,2-0.895,2-2v-26c0-1.104-0.896-1.998-2-1.998H1c-1.104,0-2,0.895-2,1.998v26
		C-1,78.32-0.104,79.215,1,79.215z"/>
	<path fill="#181818" d="M7,79.215h24V49.216H7V79.215z"/>
</g>
<g>
	<g>
		<path fill="#383838" d="M51.152,2v7c0,1.104,0.895,2,2,2h26.001c1.104,0,1.998-0.896,1.998-2V2c0-1.104-0.896-2-1.998-2H53.152
			C52.046,0,51.152,0.896,51.152,2z"/>
		<path fill="#181818" d="M51.152,8v24h30V8H51.152z"/>
	</g>
	<g>
		<path fill="#383838" d="M81.152,126v-7c0-1.104-0.896-2-2-2H53.151c-1.104,0-1.998,0.896-1.998,2v7c0,1.104,0.895,2,1.998,2
			h26.001C80.258,128,81.152,127.104,81.152,126z"/>
		<path fill="#181818" d="M81.152,120V96h-30v24H81.152z"/>
	</g>
	<g>
		<path fill="#383838" d="M92.152,2.073v7c0,1.104,0.895,2,2,2h26.002c1.104,0,1.998-0.896,1.998-2v-7c0-1.104-0.896-2-1.998-2
			H94.152C93.047,0.073,92.152,0.969,92.152,2.073z"/>
		<path fill="#181818" d="M92.152,8.073v24h30.001v-24H92.152z"/>
	</g>
	<g>
		<path fill="#383838" d="M122.153,126.073v-7c0-1.104-0.896-2-2-2H94.152c-1.104,0-1.998,0.896-1.998,2v7c0,1.104,0.895,2,1.998,2
			h26.001C121.259,128.073,122.153,127.178,122.153,126.073z"/>
		<path fill="#181818" d="M122.153,120.073v-24H92.152v24H122.153z"/>
	</g>
	<g>
		<path fill="#383838" d="M133.153,2.073v7c0,1.104,0.895,2,2,2h26.001c1.104,0,1.998-0.896,1.998-2v-7c0-1.104-0.896-2-1.998-2
			h-26.001C134.048,0.073,133.153,0.969,133.153,2.073z"/>
		<path fill="#181818" d="M133.153,8.073v24h30v-24H133.153z"/>
	</g>
	<g>
		<path fill="#383838" d="M163.153,126.072v-7c0-1.104-0.896-2-2-2h-26.002c-1.104,0-1.998,0.896-1.998,2v7c0,1.104,0.895,2,1.998,2
			h26.002C162.259,128.072,163.153,127.178,163.153,126.072z"/>
		<path fill="#181818" d="M163.153,120.072v-24h-30v24H163.153z"/>
	</g>
</g>
</svg>
