<?xml version="1.0" encoding="utf-8"?>
<!-- Generator: Adobe Illustrator 16.0.0, SVG Export Plug-In . SVG Version: 6.00 Build 0)  -->
<!DOCTYPE svg PUBLIC "-//W3C//DTD SVG 1.1//EN" "http://www.w3.org/Graphics/SVG/1.1/DTD/svg11.dtd">
<svg version="1.1" id="Layer_1" xmlns="http://www.w3.org/2000/svg" xmlns:xlink="http://www.w3.org/1999/xlink" x="0px" y="0px"
	 width="25px" height="17px" viewBox="0 0 25 17" enable-background="new 0 0 25 17" xml:space="preserve">
<g id="fast_x5F_backward_2_">
	<path fill-rule="evenodd" clip-rule="evenodd" fill="#ffffff" d="M24.483,0.08l-9.888,7.704V7.763V0.264
		c0-0.26-0.311-0.343-0.518-0.184L4.19,7.784V0.471c0-0.26-0.212-0.472-0.473-0.472H1.825c-0.259,0-0.472,0.212-0.472,0.472v16.06
		c0,0.259,0.213,0.471,0.472,0.471h1.892c0.261,0,0.473-0.212,0.473-0.471V9.172l9.888,7.732c0.207,0.16,0.518,0.076,0.518-0.185
		V9.192V9.172l9.888,7.732C24.689,17.064,25,16.98,25,16.72V0.264C25,0.003,24.689-0.079,24.483,0.08z"/>
</g>
</svg>
