<?xml version="1.0" encoding="utf-8"?>
<!-- Generator: Adobe Illustrator 16.0.0, SVG Export Plug-In . SVG Version: 6.00 Build 0)  -->
<!DOCTYPE svg PUBLIC "-//W3C//DTD SVG 1.1//EN" "http://www.w3.org/Graphics/SVG/1.1/DTD/svg11.dtd">
<svg version="1.1" id="Layer_1" xmlns="http://www.w3.org/2000/svg" xmlns:xlink="http://www.w3.org/1999/xlink" x="0px" y="0px"
	 width="12.459px" height="21px" viewBox="0 0 12.459 21" enable-background="new 0 0 12.459 21" xml:space="preserve">
<g>
	<g>
		<path fill="#FFFFFF" d="M11.281,0.009l-0.905,0.002l-4.154,6.3c0,0-1.97,0.41-3.47,0.41H2.458c0,0-2.447,0.146-2.447,2.341v2.75
			c0,0-0.314,2.334,2.511,2.342c0.081-0.008,2.844-0.309,3.7,0.555l4.154,6.303h0.982c0,0,1.094-0.93,1.094-2.1V2.111
			C12.452,2.111,12.623,0.009,11.281,0.009z M2.537,14.156c-0.005,0-0.011-0.002-0.016-0.002c-0.001,0-0.007,0.002-0.007,0.002
			H2.537z"/>
	</g>
</g>
</svg>
