<?xml version="1.0" encoding="utf-8"?>
<!-- Generator: Adobe Illustrator 16.0.0, SVG Export Plug-In . SVG Version: 6.00 Build 0)  -->
<!DOCTYPE svg PUBLIC "-//W3C//DTD SVG 1.1//EN" "http://www.w3.org/Graphics/SVG/1.1/DTD/svg11.dtd">
<svg version="1.1" id="Layer_1" xmlns="http://www.w3.org/2000/svg" xmlns:xlink="http://www.w3.org/1999/xlink" x="0px" y="0px"
	 width="27.994px" height="30px" viewBox="0 0 27.994 30" enable-background="new 0 0 27.994 30" xml:space="preserve">
<path fill="#FFFFFF" d="M26.852,16.03c-0.049,3.403-1.387,6.603-3.766,9.01c-5.014,5.073-13.17,5.073-18.184,0
	c-5.013-5.073-5.013-13.33,0-18.403c4.756-4.811,12.336-5.06,17.383-0.746l-4.551,1.185l0.232,1.133l6.563-1.575l-0.031-0.032
	l0.025-0.008l-1.277-6.582l-1.105,0.293l0.932,4.752C17.578,0.312,9.29,0.563,4.094,5.818c-5.458,5.525-5.458,14.514,0,20.038
	c5.46,5.524,14.342,5.524,19.801,0c2.59-2.62,4.045-6.104,4.1-9.81L26.852,16.03z"/>
</svg>
