<?xml version="1.0" encoding="utf-8"?>
<!-- Generator: Adobe Illustrator 16.0.0, SVG Export Plug-In . SVG Version: 6.00 Build 0)  -->
<!DOCTYPE svg PUBLIC "-//W3C//DTD SVG 1.1//EN" "http://www.w3.org/Graphics/SVG/1.1/DTD/svg11.dtd">
<svg version="1.1" id="Layer_1" xmlns="http://www.w3.org/2000/svg" xmlns:xlink="http://www.w3.org/1999/xlink" x="0px" y="0px"
	 width="25px" height="17px" viewBox="0 0 25 17" enable-background="new 0 0 25 17" xml:space="preserve">
<g id="random_2_">
	<path fill="#ffffff" d="M23.854,12.986c0.189,0.143,0.189,0.376,0,0.518l-4.507,3.364c-0.191,0.145-0.366,0.066-0.366-0.171v-2.16
		h-3.051l-3.716-3.404l1.916-1.757l2.807,2.573h2.044V9.794c0-0.236,0.175-0.315,0.366-0.172L23.854,12.986z M18.981,5.047v2.159
		c0,0.237,0.175,0.315,0.366,0.172l4.497-3.366c0.189-0.142,0.194-0.375,0.005-0.516l-4.505-3.366
		c-0.189-0.143-0.363-0.066-0.363,0.172v2.156h-3.051l-10.354,9.49H0.472C0.235,11.949,0,12.146,0,12.384v1.724
		c0,0.237,0.235,0.43,0.472,0.43h6.112l10.354-9.49H18.981z M0.472,5.047h5.105l2.807,2.575L10.3,5.864L6.584,2.459H0.472
		C0.235,2.459,0,2.654,0,2.892v1.725C0,4.855,0.235,5.047,0.472,5.047z"/>
</g>
</svg>
