<?xml version="1.0" encoding="utf-8"?>
<!-- Generator: Adobe Illustrator 16.0.0, SVG Export Plug-In . SVG Version: 6.00 Build 0)  -->
<!DOCTYPE svg PUBLIC "-//W3C//DTD SVG 1.1//EN" "http://www.w3.org/Graphics/SVG/1.1/DTD/svg11.dtd">
<svg version="1.1" id="Layer_1" xmlns="http://www.w3.org/2000/svg" xmlns:xlink="http://www.w3.org/1999/xlink" x="0px" y="0px"
	 width="26.985px" height="21px" viewBox="0 0 26.985 21" enable-background="new 0 0 26.985 21" xml:space="preserve">
<g>
	<g>
		<path fill-rule="evenodd" clip-rule="evenodd" fill="#ffffff" d="M11.281,0.009l-0.905,0.002l-4.154,6.3c0,0-1.97,0.41-3.47,0.41
			H2.458c0,0-2.447,0.146-2.447,2.341v2.75c0,0-0.314,2.334,2.511,2.343c0.081-0.009,2.843-0.309,3.7,0.554l4.154,6.303h0.983
			c0,0,1.093-0.93,1.093-2.1V2.111C12.452,2.111,12.623,0.009,11.281,0.009z M2.537,14.156c-0.005,0-0.01-0.001-0.015-0.001
			c-0.001,0-0.007,0.001-0.007,0.001H2.537z M18.489,4.409l-1.883,1.854c1.043,0.718,1.947,2.325,1.947,4.248
			c0,1.649-0.904,3.53-1.947,4.245l1.883,1.857c1.715-1.469,2.829-3.643,2.829-6.102C21.318,8.05,20.204,5.877,18.489,4.409z
			 M22.522,0.027l-2.033,2.027c2.236,2.115,3.658,5.108,3.658,8.457c0,3.348-1.422,6.344-3.658,8.454l2.033,2.029
			c2.734-2.635,4.463-6.346,4.463-10.483C26.985,6.374,25.256,2.667,22.522,0.027z"/>
	</g>
</g>
</svg>
